<?xml version="1.0"?>
<svg xmlns="http://www.w3.org/2000/svg" xmlns:xlink="http://www.w3.org/1999/xlink" version="1.1" id="Capa_1" x="0px" y="0px" viewBox="0 0 507.925 507.925" style="enable-background:new 0 0 507.925 507.925;" xml:space="preserve" width="512px" height="512px"><g><g>
	<g>
		<path d="M432.413,444.5c-4.4,42.1-48.1,51.9-130.2,43.8c-63.7-6.3-118.2-1.6-140.7,0c-51.9,3.6-92.8,6.5-114.5-13.7    c-12.5-11.7-18.6-31.5-18.6-60.6c0-85.2,53.2-161.2,132.7-190.7c20,14.1,44.4,22.5,70.7,22.5c26.3,0,50.7-8.4,70.7-22.6    c26.5,9.9,51.2,25.4,71.5,45.3l11.5-11.8c-19.7-19.3-43.2-34.8-68.5-45.5c23.2-22.4,37.7-53.7,37.7-88.3    c0-67.8-55.1-122.9-122.9-122.9s-122.9,55.1-122.9,122.9c0,34.7,14.5,66,37.7,88.4c-81,34-134.6,113.7-134.6,202.6    c0,33.9,8.3,57.1,23.9,72.6c30.9,30.9,94.8,19.8,126.9,18.1c61.6-3.2,60.8-6.2,138.4,0c71,5.7,132.5,9.3,147.3-56.5L432.413,444.5    z M125.413,122.9c0-58.7,47.7-106.4,106.4-106.4s106.4,47.7,106.4,106.4c0,58.7-47.7,106.4-106.4,106.4    C173.213,229.3,125.413,181.6,125.413,122.9z" data-original="#000000" class="active-path" data-old_color="#000000" fill="#FFFFFF"/>
	</g>
</g><g>
	<g>
		<path d="M417.113,273.4c-43.4,0-78.8,35.3-78.8,78.8c0,43.5,35.3,78.8,78.8,78.8s78.8-35.3,78.8-78.8S460.513,273.4,417.113,273.4    z M417.113,414.5c-34.4,0-62.3-28-62.3-62.3c0-34.4,28-62.3,62.3-62.3c34.4,0,62.3,28,62.3,62.3    C479.413,386.6,451.413,414.5,417.113,414.5z" data-original="#000000" class="active-path" data-old_color="#000000" fill="#FFFFFF"/>
	</g>
</g><g>
	<g>
		<polygon points="425.313,344 425.313,308.1 408.813,308.1 408.813,344 373.013,344 373.013,360.4 408.813,360.4 408.813,396.3     425.313,396.3 425.313,360.4 461.213,360.4 461.213,344   " data-original="#000000" class="active-path" data-old_color="#000000" fill="#FFFFFF"/>
	</g>
</g></g> </svg>
